# xmcd
#
# Track frame offsets:
#        150
#        19677
#        44098
#        76317
#        112950
#        124010
#        136031
#        158167
#        171551
#        188154
#        210263
#        238038
#        260778
#        279887
#        301802
#        331629
#
# Disc length: 4584 seconds
#
# Revision: 4
# Processed by: cddbd v1.5.1PL2 Copyright (c) Steve Scherf et al.
# Submitted via: ExactAudioCopy v0.95a4
#
DISCID=d111e610
DTITLE=V - World Standard Schema Mixed By Sunaga T Experience
DYEAR=2006
DGENRE=Jazz
TTITLE0=Paolo Fedreghini And Marco Bianchi - You Are A Star(Shining St
TTITLE0=ar Mix)
TTITLE1=Gerardo Frisina - Jazz Ally
TTITLE2=Rosario Giuliani Quartetto - Il Sorpasso
TTITLE3=Quartetto Lo Greco - Giant Steps
TTITLE4=Rosalia De Souza - Vivo Sonhando
TTITLE5=Soulstance - Mainstream
TTITLE6=The Invisible Session - 'Till The End
TTITLE7=Les Hommes - The Mood Is Modal
TTITLE8=Rosalia De Souza - Onde Anda O Meu Amor
TTITLE9=S-Tone Inc - Emotional Dancing
TTITLE10=Gerardo Frisina - Tokyo's Dream
TTITLE11=Schema Sextet - Lotar
TTITLE12=Sunaga t Experience - Cuba Libre
TTITLE13=Luis Ferri - My Love Samba
TTITLE14=Quartetto Lo Greco - Yes Or No
TTITLE15=The Dining Rooms - Thin Ice
EXTD=
EXTT0=
EXTT1=
EXTT2=
EXTT3=
EXTT4=
EXTT5=
EXTT6=
EXTT7=
EXTT8=
EXTT9=
EXTT10=
EXTT11=
EXTT12=
EXTT13=
EXTT14=
EXTT15=
PLAYORDER=
